<svg id="visual" viewBox="0 0 900 600" width="900" height="600" xmlns="http://www.w3.org/2000/svg" xmlns:xlink="http://www.w3.org/1999/xlink" version="1.1"><rect x="0" y="0" width="900" height="600" fill="#071c2c"></rect><path d="M0 292L16.7 295.2C33.3 298.3 66.7 304.7 100 300.3C133.3 296 166.7 281 200 284C233.3 287 266.7 308 300 324.5C333.3 341 366.7 353 400 356.3C433.3 359.7 466.7 354.3 500 344.8C533.3 335.3 566.7 321.7 600 297.3C633.3 273 666.7 238 700 224.3C733.3 210.7 766.7 218.3 800 224.7C833.3 231 866.7 236 883.3 238.5L900 241L900 601L883.3 601C866.7 601 833.3 601 800 601C766.7 601 733.3 601 700 601C666.7 601 633.3 601 600 601C566.7 601 533.3 601 500 601C466.7 601 433.3 601 400 601C366.7 601 333.3 601 300 601C266.7 601 233.3 601 200 601C166.7 601 133.3 601 100 601C66.7 601 33.3 601 16.7 601L0 601Z" fill="#376b95"></path><path d="M0 346L16.7 353C33.3 360 66.7 374 100 357C133.3 340 166.7 292 200 284C233.3 276 266.7 308 300 318.8C333.3 329.7 366.7 319.3 400 303.8C433.3 288.3 466.7 267.7 500 260C533.3 252.3 566.7 257.7 600 277.8C633.3 298 666.7 333 700 345.8C733.3 358.7 766.7 349.3 800 352.8C833.3 356.3 866.7 372.7 883.3 380.8L900 389L900 601L883.3 601C866.7 601 833.3 601 800 601C766.7 601 733.3 601 700 601C666.7 601 633.3 601 600 601C566.7 601 533.3 601 500 601C466.7 601 433.3 601 400 601C366.7 601 333.3 601 300 601C266.7 601 233.3 601 200 601C166.7 601 133.3 601 100 601C66.7 601 33.3 601 16.7 601L0 601Z" fill="#265f92"></path><path d="M0 345L16.7 344.2C33.3 343.3 66.7 341.7 100 340.3C133.3 339 166.7 338 200 338C233.3 338 266.7 339 300 345.7C333.3 352.3 366.7 364.7 400 368.7C433.3 372.7 466.7 368.3 500 357.3C533.3 346.3 566.7 328.7 600 326.7C633.3 324.7 666.7 338.3 700 357.7C733.3 377 766.7 402 800 400.2C833.3 398.3 866.7 369.7 883.3 355.3L900 341L900 601L883.3 601C866.7 601 833.3 601 800 601C766.7 601 733.3 601 700 601C666.7 601 633.3 601 600 601C566.7 601 533.3 601 500 601C466.7 601 433.3 601 400 601C366.7 601 333.3 601 300 601C266.7 601 233.3 601 200 601C166.7 601 133.3 601 100 601C66.7 601 33.3 601 16.7 601L0 601Z" fill="#14538d"></path><path d="M0 400L16.7 397C33.3 394 66.7 388 100 397C133.3 406 166.7 430 200 428.5C233.3 427 266.7 400 300 386.7C333.3 373.3 366.7 373.7 400 386.2C433.3 398.7 466.7 423.3 500 422.7C533.3 422 566.7 396 600 383C633.3 370 666.7 370 700 382.8C733.3 395.7 766.7 421.3 800 423.7C833.3 426 866.7 405 883.3 394.5L900 384L900 601L883.3 601C866.7 601 833.3 601 800 601C766.7 601 733.3 601 700 601C666.7 601 633.3 601 600 601C566.7 601 533.3 601 500 601C466.7 601 433.3 601 400 601C366.7 601 333.3 601 300 601C266.7 601 233.3 601 200 601C166.7 601 133.3 601 100 601C66.7 601 33.3 601 16.7 601L0 601Z" fill="#034788"></path><path d="M0 477L16.7 469.3C33.3 461.7 66.7 446.3 100 438.3C133.3 430.3 166.7 429.7 200 437.8C233.3 446 266.7 463 300 472.8C333.3 482.7 366.7 485.3 400 483.2C433.3 481 466.7 474 500 468C533.3 462 566.7 457 600 465.8C633.3 474.7 666.7 497.3 700 499.3C733.3 501.3 766.7 482.7 800 474.2C833.3 465.7 866.7 467.3 883.3 468.2L900 469L900 601L883.3 601C866.7 601 833.3 601 800 601C766.7 601 733.3 601 700 601C666.7 601 633.3 601 600 601C566.7 601 533.3 601 500 601C466.7 601 433.3 601 400 601C366.7 601 333.3 601 300 601C266.7 601 233.3 601 200 601C166.7 601 133.3 601 100 601C66.7 601 33.3 601 16.7 601L0 601Z" fill="#003a82"></path><path d="M0 564L16.7 558.5C33.3 553 66.7 542 100 536C133.3 530 166.7 529 200 530.7C233.3 532.3 266.7 536.7 300 533.8C333.3 531 366.7 521 400 517.7C433.3 514.3 466.7 517.7 500 524.2C533.3 530.7 566.7 540.3 600 536.7C633.3 533 666.7 516 700 511C733.3 506 766.7 513 800 519.7C833.3 526.3 866.7 532.7 883.3 535.8L900 539L900 601L883.3 601C866.7 601 833.3 601 800 601C766.7 601 733.3 601 700 601C666.7 601 633.3 601 600 601C566.7 601 533.3 601 500 601C466.7 601 433.3 601 400 601C366.7 601 333.3 601 300 601C266.7 601 233.3 601 200 601C166.7 601 133.3 601 100 601C66.7 601 33.3 601 16.7 601L0 601Z" fill="#072c7a"></path></svg>